<svg xmlns="http://www.w3.org/2000/svg" width="220" height="40" viewBox="0 0 220 40">
	<title>Living Online</title>
  <path fill="#fff" d="M6.64 28.82c-.38-.39-.58-1.08-.58-2.05V6.46c0-.56.22-.94.68-1.16l.12-.06v-1.2L0 6.75v1.31l.28-.1c.54-.19 1-.28 1.37-.28.51 0 1.19.15 1.19 1.49v17.59c0 .97-.2 1.66-.58 2.05-.39.39-1.08.6-2.05.62h-.2v1.28h8.9v-1.28h-.2c-.99-.02-1.68-.23-2.07-.61zM17.01 9.11a1.9 1.9 0 0 0 1.4-.57c.38-.38.58-.85.58-1.39 0-.56-.2-1.04-.59-1.41a1.98 1.98 0 0 0-1.43-.57 1.96 1.96 0 0 0-1.92 1.98c0 .55.19 1.02.57 1.39.38.38.85.57 1.39.57zM21.25 29.44c-.98-.02-1.67-.23-2.05-.62-.38-.39-.58-1.08-.58-2.05v-13.9H17.5l-4.94 1.92v1.37l.27-.08.47-.17c.36-.15.68-.22.98-.22.78 0 1.13.3 1.13.96v10.13c0 .98-.2 1.67-.58 2.06-.39.39-1.08.6-2.05.62h-.2v1.28h8.9v-1.28l-.23-.02z"/>
  <g>
    <path fill="#fff" d="M58.32 9.11a1.9 1.9 0 0 0 1.4-.57c.38-.38.58-.85.58-1.39 0-.56-.2-1.04-.59-1.41a1.98 1.98 0 0 0-1.43-.57c-.54 0-1 .2-1.37.59-.37.39-.56.86-.56 1.39a1.94 1.94 0 0 0 1.97 1.96zM60.5 28.81c-.38-.39-.58-1.08-.58-2.05v-13.9H58.8l-4.94 1.92v1.37l.27-.08.47-.17c.36-.15.68-.22.98-.22.78 0 1.13.3 1.13.96v10.13c0 .98-.19 1.67-.58 2.06-.39.39-1.08.6-2.05.62h-.2v1.28h8.9v-1.28h-.2c-1-.04-1.69-.25-2.08-.64zM83.62 28.82c-.38-.39-.58-1.08-.58-2.05v-9.69c0-2.8-1.12-4.22-3.33-4.22-1.39 0-2.91.76-4.5 2.27-.78.74-1.76 1.88-2.92 3.39v-5.66h-.98l-5 2.04v1.37l.29-.12a4.8 4.8 0 0 1 1.51-.45c.43 0 1.01.17 1.01 1.62v9.45c0 .97-.19 1.67-.57 2.05-.38.39-1.06.6-2.03.62h-.2v1.28h8.82v-1.29h-.21c-1.16-.02-1.94-.3-2.33-.82-.33-.44-.49-1.3-.49-2.56 0-2.15.51-4.38 1.51-6.61 1.22-2.69 2.77-4.06 4.6-4.06 1.08 0 1.58.61 1.58 1.92v11.43c0 .47-.18.68-.59.7l-.2.01v1.28h6.89v-1.28h-.2c-1-.03-1.69-.24-2.08-.62zM105.4 29.21c-.68-.4-1.88-.89-3.56-1.44-2.97-.98-3.42-1.7-3.42-2.05 0-.26.28-.92 2.14-2.53a15.36 15.36 0 0 0 2.38-2.38 5.16 5.16 0 0 0 1.16-3.15c0-.47-.11-.99-.34-1.54h3.67v-1.29h-1.52c-.93 0-2.24-.34-3.9-1.01-1.5-.61-2.68-.92-3.5-.92-1.95 0-3.8.64-5.51 1.9-1.87 1.38-2.83 3.04-2.83 4.95 0 1.44.57 2.61 1.71 3.47a6.13 6.13 0 0 0 3.75 1.15c.39 0 1.03-.07 1.95-.21-1.34 1.15-2 2.12-2 2.94 0 .68.36 1.33 1.07 1.95-1.97.41-3.68.95-5.1 1.61-2.45 1.14-3.69 2.53-3.69 4.12 0 1.58 1.02 2.77 3.02 3.56 1.44.56 3.07.85 4.85.85 2.49 0 4.93-.52 7.27-1.53 2.99-1.31 4.51-3.11 4.51-5.34 0-1.25-.71-2.28-2.11-3.11zm-8.1-14.8c1.08 0 1.93.44 2.58 1.34.59.81.88 1.8.88 2.93 0 1.16-.32 2.16-.95 2.98A3.2 3.2 0 0 1 97.13 23a3.11 3.11 0 0 1-2.64-1.32 4.8 4.8 0 0 1-.92-2.96c0-1.22.32-2.23.95-3.01.7-.88 1.6-1.3 2.78-1.3zm-.37 23.2c-1.4 0-2.68-.21-3.79-.63-1.52-.57-2.25-1.4-2.25-2.53 0-1.8 2.48-3.35 7.38-4.59l2.07.74c1.97.7 2.5.91 2.61.97 1.02.5 1.53 1.1 1.53 1.78 0 1.46-.91 2.55-2.78 3.35-1.44.6-3.04.91-4.77.91z"/>
  </g>
  <g>
    <path fill="#f06b21" d="M121.69 12.89a8.81 8.81 0 0 0-6.75 3.14c-1.79 2-2.69 4.36-2.69 7 0 2.42.68 4.4 2.03 5.89a7.43 7.43 0 0 0 5.75 2.34 8.9 8.9 0 0 0 6.82-3.1 10.17 10.17 0 0 0 2.73-7.03c0-2.43-.7-4.43-2.09-5.93-1.42-1.53-3.37-2.31-5.8-2.31zm.25 16.28c-1.93 0-3.58-.93-4.92-2.76a9.23 9.23 0 0 1-1.86-5.59c0-1.72.4-3.15 1.18-4.24a4.37 4.37 0 0 1 3.79-1.84c.95 0 1.91.32 2.86.94a7.97 7.97 0 0 1 2.72 3.28c.64 1.35.96 2.76.96 4.2 0 1.58-.4 2.95-1.18 4.1a4.04 4.04 0 0 1-3.55 1.91zM150.55 28.82c-.38-.39-.58-1.08-.58-2.05v-9.69c0-2.8-1.12-4.22-3.33-4.22-1.39 0-2.91.76-4.5 2.27-.78.74-1.76 1.88-2.92 3.39v-5.66h-.98l-5 2.04v1.37l.29-.12a4.8 4.8 0 0 1 1.51-.45c.43 0 1.01.17 1.01 1.62v9.45c0 .97-.19 1.67-.57 2.05-.38.39-1.06.6-2.03.62h-.2v1.28h8.82v-1.29h-.21c-1.16-.02-1.94-.3-2.33-.82-.33-.44-.49-1.3-.49-2.56 0-2.15.51-4.38 1.51-6.61 1.22-2.69 2.77-4.06 4.6-4.06 1.08 0 1.58.61 1.58 1.92v11.43c0 .47-.18.68-.6.7l-.2.01v1.28h6.89v-1.28h-.2c-.99-.03-1.68-.24-2.07-.62zM163.17 28.82c-.38-.39-.58-1.08-.58-2.05V6.46c0-.56.22-.94.68-1.16l.12-.06v-1.2l-6.86 2.7v1.31l.28-.1c.54-.19 1-.28 1.37-.28.51 0 1.19.15 1.19 1.49v17.59c0 .97-.2 1.67-.58 2.05-.39.39-1.08.6-2.05.62h-.2v1.28h8.9v-1.28h-.2c-.99-.01-1.69-.22-2.07-.6zM175.72 28.81c-.38-.39-.58-1.08-.58-2.05v-13.9h-1.12l-4.94 1.92v1.37l.27-.08.47-.17c.36-.15.68-.22.98-.22.78 0 1.13.3 1.13.96v10.13c0 .98-.2 1.67-.58 2.06-.39.39-1.08.6-2.05.62h-.2v1.28h8.9v-1.28h-.2c-1-.04-1.69-.25-2.08-.64zM173.54 9.11a1.9 1.9 0 0 0 1.4-.57c.38-.38.58-.85.58-1.39 0-.56-.2-1.04-.59-1.41a1.98 1.98 0 0 0-1.43-.57c-.54 0-1 .2-1.37.59-.37.39-.56.86-.56 1.39a1.94 1.94 0 0 0 1.97 1.96zM198.84 28.82c-.38-.39-.58-1.08-.58-2.05v-9.69c0-2.8-1.12-4.22-3.33-4.22-1.39 0-2.91.76-4.5 2.27-.78.74-1.76 1.88-2.92 3.39v-5.66h-.98l-5 2.04v1.37l.29-.12a4.8 4.8 0 0 1 1.51-.45c.43 0 1.01.17 1.01 1.62v9.45c0 .97-.19 1.67-.57 2.05-.38.39-1.06.6-2.03.62h-.2v1.28h8.82v-1.29h-.21c-1.16-.02-1.94-.3-2.33-.82-.33-.44-.49-1.3-.49-2.56 0-2.16.51-4.38 1.51-6.61 1.22-2.69 2.77-4.06 4.6-4.06 1.08 0 1.58.61 1.58 1.92v11.43c0 .47-.18.68-.6.7l-.2.01v1.28h6.89v-1.28h-.2c-.99-.03-1.68-.24-2.07-.62zM219.63 24.51c-2.16 2.49-4.3 3.75-6.36 3.75a5.05 5.05 0 0 1-4.38-2.4 8.77 8.77 0 0 1-1.47-5.04l.03-.84h11.98l-.01-.22a7.75 7.75 0 0 0-1.68-4.8 5.76 5.76 0 0 0-4.59-2.07c-2.44 0-4.55 1.11-6.27 3.3a10.8 10.8 0 0 0-2.38 6.78c0 2.08.66 3.97 1.97 5.6a6.48 6.48 0 0 0 5.23 2.69c2.68 0 5.45-1.77 8.24-5.26l.05-.06v-1.85l-.36.42zm-11.97-5.86a5.66 5.66 0 0 1 1.39-2.81 3.93 3.93 0 0 1 2.97-1.36c1.16 0 2.08.44 2.81 1.34.59.75.97 1.7 1.12 2.82h-8.29z"/>
  </g>
  <path fill="#f06b21" d="M51.03 1l-6.35 1.89C33.77 6.14 39 15.25 39 15.25c.62.32 1.01-.26 1.01-.26-1.54-9.26 8.25-11.72 8.25-11.72-5.51 5.95-5.3 9.64-5.3 9.64l.78.06c1.31-6.07 6.44-10.31 6.44-10.31s4.42 5.11.24 7.98c-8.16 5.6-9.16 6.48-11.57 18.03 0 0-2.36-3.69-7.3-5.97-4.37-2.02-8.77-6-7.97-10.01 0 0 5.03 2.38 6.75 6.46.07.16.73-.28.73-.28s-1.65-4.46-7.22-6.88c0 0 10.31.54 9.55 7.49-.05.47.71.27.76.18 2.93-4.7-2.42-9-12.47-9.13-.85-.01-2.09 2.88-.95 5.17 1.53 3.09 3.88 5.46 8.04 7.19 9.09 3.79 10.38 9.49 10.38 9.49 1.93-3.57 1.72-15.69 12.49-20.77C60.51 7.42 51.03 1 51.03 1z"/>
</svg>